<svg xmlns="http://www.w3.org/2000/svg" viewBox="0 0 1200 400" width="1200" height="400">
  <rect width="1200" height="400" fill="#fafafa"/>
  <!-- Tier 1 -->
  <rect x="60" y="20" width="340" height="330" rx="8" fill="#ffffff" stroke="#e5e7eb" stroke-width="1"/>
  <rect x="150" y="40" width="160" height="16" rx="3" fill="#6b7280"/>
  <rect x="170" y="70" width="120" height="28" rx="4" fill="#1d1d1f"/>
  <rect x="130" y="115" width="200" height="10" rx="2" fill="#6b7280"/>
  <rect x="130" y="135" width="200" height="10" rx="2" fill="#6b7280"/>
  <rect x="130" y="155" width="200" height="10" rx="2" fill="#6b7280"/>
  <rect x="130" y="175" width="200" height="10" rx="2" fill="#6b7280"/>
  <rect x="120" y="210" width="220" height="42" rx="6" fill="#1a3f6f" opacity="0.15"/>
  <rect x="170" y="224" width="120" height="14" rx="3" fill="#1a3f6f"/>
  <!-- Tier 2 (highlighted) -->
  <rect x="430" y="10" width="340" height="340" rx="8" fill="#1a3f6f"/>
  <rect x="530" y="16" width="140" height="22" rx="11" fill="#e8491d"/>
  <rect x="560" y="21" width="80" height="12" rx="3" fill="#ffffff"/>
  <rect x="520" y="50" width="160" height="16" rx="3" fill="rgba(255,255,255,0.6)"/>
  <rect x="540" y="80" width="120" height="28" rx="4" fill="#ffffff"/>
  <rect x="500" y="125" width="200" height="10" rx="2" fill="rgba(255,255,255,0.5)"/>
  <rect x="500" y="145" width="200" height="10" rx="2" fill="rgba(255,255,255,0.5)"/>
  <rect x="500" y="165" width="200" height="10" rx="2" fill="rgba(255,255,255,0.5)"/>
  <rect x="500" y="185" width="200" height="10" rx="2" fill="rgba(255,255,255,0.5)"/>
  <rect x="490" y="220" width="220" height="42" rx="6" fill="#e8491d"/>
  <rect x="540" y="234" width="120" height="14" rx="3" fill="#ffffff"/>
  <!-- Tier 3 -->
  <rect x="800" y="20" width="340" height="330" rx="8" fill="#ffffff" stroke="#e5e7eb" stroke-width="1"/>
  <rect x="890" y="40" width="160" height="16" rx="3" fill="#6b7280"/>
  <rect x="910" y="70" width="120" height="28" rx="4" fill="#1d1d1f"/>
  <rect x="870" y="115" width="200" height="10" rx="2" fill="#6b7280"/>
  <rect x="870" y="135" width="200" height="10" rx="2" fill="#6b7280"/>
  <rect x="870" y="155" width="200" height="10" rx="2" fill="#6b7280"/>
  <rect x="870" y="175" width="200" height="10" rx="2" fill="#6b7280"/>
  <rect x="860" y="210" width="220" height="42" rx="6" fill="#1a3f6f" opacity="0.15"/>
  <rect x="910" y="224" width="120" height="14" rx="3" fill="#1a3f6f"/>
  <!-- Label -->
  <rect x="0" y="360" width="1200" height="40" fill="#1d1d1f"/>
  <text x="600" y="385" text-anchor="middle" font-family="system-ui, sans-serif" font-size="14" fill="#ffffff">Pricing Three Tier</text>
</svg>